<?xml version="1.0" standalone="no"?>
<!DOCTYPE svg PUBLIC "-//W3C//DTD SVG 20010904//EN"
 "http://www.w3.org/TR/2001/REC-SVG-20010904/DTD/svg10.dtd">
<svg version="1.0" xmlns="http://www.w3.org/2000/svg"
 width="260.000000pt" height="260.000000pt" viewBox="0 0 260.000000 260.000000"
 preserveAspectRatio="xMidYMid meet">
<metadata>
Created by potrace 1.11, written by Peter Selinger 2001-2013
</metadata>
<g transform="translate(0.000000,260.000000) scale(0.100000,-0.100000)"
fill="#000000" stroke="none">
<path d="M0 1300 l0 -1300 1300 0 1300 0 0 1300 0 1300 -1300 0 -1300 0 0
-1300z m1023 398 c8 -18 24 -54 36 -80 11 -26 21 -50 21 -53 0 -4 9 -25 19
-49 11 -23 29 -67 41 -97 23 -60 27 -69 64 -152 14 -32 26 -61 26 -65 0 -5 9
-26 19 -48 11 -22 23 -52 26 -67 8 -31 23 -35 31 -9 8 25 43 110 65 159 11 23
19 44 19 48 0 3 9 25 20 50 11 25 29 66 41 91 11 26 29 70 40 98 11 28 27 65
34 81 7 17 23 52 35 78 l21 48 57 -3 57 -3 0 -420 0 -420 -45 0 -45 0 -5 335
c-3 214 -8 326 -14 310 -5 -14 -20 -50 -34 -80 -41 -93 -52 -118 -52 -124 0
-3 -10 -28 -21 -54 -51 -113 -59 -132 -59 -137 0 -4 -8 -25 -19 -48 -10 -23
-29 -67 -41 -97 -33 -84 -47 -105 -69 -108 -17 -3 -25 5 -37 35 -8 21 -21 52
-29 68 -7 17 -28 66 -45 110 -18 44 -37 84 -41 89 -5 6 -9 16 -9 23 0 7 -12
38 -26 70 -38 83 -51 114 -64 148 -47 126 -45 136 -50 -216 l-5 -324 -45 0
-45 0 -3 410 c-1 225 0 416 3 422 3 8 25 13 59 13 52 0 56 -2 69 -32z"/>
<path d="M981 1554 c0 -11 3 -14 6 -6 3 7 2 16 -1 19 -3 4 -6 -2 -5 -13z"/>
</g>
</svg>
